<svg width="20" height="20" viewBox="0 0 20 20" fill="none" xmlns="http://www.w3.org/2000/svg">
<path d="M5 1.66666L5.97583 1.83582C5.68 3.70666 6.635 3.93499 8.225 4.23082C9.44835 4.45833 10.8333 4.74916 10.8333 6.96751V7.49999H9.84752V6.96751C9.84752 5.67081 9.44748 5.45999 8.04417 5.19916C5.89165 4.79916 4.63083 4.03999 5 1.66666ZM20 13.3333C20 16.0933 17.8275 18.3333 15.1458 18.3333C13.8867 18.3333 12.7408 17.8375 11.8783 17.0292C10.7858 16.005 9.14665 16.0858 8.08665 17.0608C7.22835 17.8508 6.09583 18.3333 4.85417 18.3333C2.17334 18.3333 0 16.0933 0 13.3333C0 10.5733 2.17334 8.33333 4.85417 8.33333L15.3233 8.33916C17.9216 8.43581 20 10.635 20 13.3333ZM7.5 12.5H5.83335V10.8333H4.16667V12.5H2.5V14.1666H4.16667V15.8333H5.83335V14.1666H7.5V12.5ZM10.8333 13.3333H9.16665V14.1666H10.8333V13.3333ZM14.1667 11.6666C14.1667 12.1266 14.5392 12.5 15 12.5C15.4608 12.5 15.8333 12.1266 15.8333 11.6666C15.8333 11.2066 15.4608 10.8333 15 10.8333C14.5392 10.8333 14.1667 11.2066 14.1667 11.6666ZM14.1667 13.3333C14.1667 12.8733 13.7942 12.5 13.3333 12.5C12.8725 12.5 12.5 12.8733 12.5 13.3333C12.5 13.7933 12.8725 14.1666 13.3333 14.1666C13.7942 14.1666 14.1667 13.7933 14.1667 13.3333ZM15.8333 15C15.8333 14.54 15.4608 14.1666 15 14.1666C14.5392 14.1666 14.1667 14.54 14.1667 15C14.1667 15.46 14.5392 15.8333 15 15.8333C15.4608 15.8333 15.8333 15.46 15.8333 15ZM17.5 13.3333C17.5 12.8733 17.1275 12.5 16.6667 12.5C16.2058 12.5 15.8333 12.8733 15.8333 13.3333C15.8333 13.7933 16.2058 14.1666 16.6667 14.1666C17.1275 14.1666 17.5 13.7933 17.5 13.3333Z" fill="#818CF8"/>
</svg>
