<svg width="113" height="112" viewBox="0 0 113 112" fill="none" xmlns="http://www.w3.org/2000/svg">
<path d="M84.5717 93.3333C80.9127 93.3333 77.5967 93.0284 74.6237 92.4186C71.6508 91.8087 69.0971 90.894 66.9627 89.6743C64.9045 88.5309 63.3418 87.0825 62.2746 85.3292C61.2074 83.6522 60.6738 81.7464 60.6738 79.612C60.6738 77.6301 61.1311 75.8387 62.0459 74.2379C62.9606 72.637 64.1803 71.2649 65.7049 70.1215C67.2295 68.9018 68.9065 67.987 70.736 67.3772L75.7672 69.6641C74.5475 70.4264 73.4803 71.1887 72.5655 71.951C71.6508 72.7133 70.9266 73.5518 70.393 74.4665C69.9356 75.4575 69.7069 76.601 69.7069 77.8969C69.7069 79.0403 70.0881 80.0313 70.8504 80.8698C71.6127 81.7083 72.6799 82.3944 74.052 82.928C75.4241 83.4616 77.0631 83.8809 78.9688 84.1858C80.8745 84.4907 83.009 84.6432 85.3721 84.6432C88.4975 84.6432 91.0893 84.3382 93.1475 83.7284C95.2057 83.1948 96.7303 82.3944 97.7212 81.3272C98.7884 80.26 99.322 79.0403 99.322 77.6682C99.322 76.2961 99.0171 75.1907 98.4073 74.3522C97.7975 73.5899 96.654 73.0182 94.977 72.637C93.2999 72.1797 90.8606 71.951 87.659 71.951C85.0672 71.951 82.5897 71.8747 80.2266 71.7223C77.9397 71.4936 75.8053 71.1125 73.8233 70.5788C71.9176 70.0452 70.2406 69.3592 68.7922 68.5207C67.3438 67.6821 66.2004 66.653 65.3619 65.4334C64.5996 64.1375 64.2184 62.6129 64.2184 60.8596C64.2184 58.5727 64.9045 56.5145 66.2766 54.685C67.6488 52.7793 69.3639 51.0641 71.4221 49.5395L76.5676 52.7412C75.8815 53.5035 75.2717 54.1514 74.7381 54.685C74.2045 55.2186 73.7852 55.7522 73.4803 56.2858C73.1754 56.7432 73.0229 57.3149 73.0229 58.001C73.0229 58.992 73.5946 59.8305 74.7381 60.5166C75.8815 61.2026 77.711 61.6981 80.2266 62.003C82.8184 62.308 86.2487 62.4604 90.5176 62.4604C94.1003 62.4604 97.0733 62.8416 99.4364 63.6039C101.876 64.2899 103.781 65.2809 105.154 66.5768C106.526 67.8727 107.479 69.3592 108.012 71.0362C108.622 72.637 108.927 74.4284 108.927 76.4104C108.927 78.5448 108.47 80.603 107.555 82.585C106.64 84.6432 105.192 86.4727 103.21 88.0735C101.304 89.6743 98.7884 90.9321 95.663 91.8468C92.6139 92.8378 88.9167 93.3333 84.5717 93.3333ZM83.0852 55.3711C79.35 55.3711 76.034 54.5707 73.1373 52.9699C70.2406 51.2928 67.9537 49.0822 66.2766 46.3379C64.6758 43.5937 63.8754 40.5064 63.8754 37.076C63.8754 33.6457 64.6758 30.5584 66.2766 27.8142C67.9537 24.9937 70.2406 22.783 73.1373 21.1822C76.034 19.5052 79.35 18.6667 83.0852 18.6667C86.8967 18.6667 90.2508 19.5052 93.1475 21.1822C96.0442 22.783 98.293 24.9937 99.8938 27.8142C101.571 30.5584 102.409 33.6457 102.409 37.076C102.409 40.5064 101.571 43.5937 99.8938 46.3379C98.293 49.0822 96.0442 51.2928 93.1475 52.9699C90.2508 54.5707 86.8967 55.3711 83.0852 55.3711ZM83.0852 46.7953C84.9909 46.7953 86.668 46.376 88.1163 45.5375C89.5647 44.699 90.7081 43.5555 91.5467 42.1072C92.3852 40.5826 92.8044 38.9055 92.8044 37.076C92.8044 35.1703 92.3852 33.5314 91.5467 32.1592C90.7081 30.7109 89.5266 29.5675 88.002 28.7289C86.5536 27.8904 84.9147 27.4711 83.0852 27.4711C81.3319 27.4711 79.7311 27.8904 78.2827 28.7289C76.8344 29.5675 75.6528 30.7109 74.7381 32.1592C73.8996 33.6076 73.4803 35.2465 73.4803 37.076C73.4803 38.8293 73.8996 40.4683 74.7381 41.9928C75.5766 43.4412 76.72 44.6228 78.1684 45.5375C79.6168 46.376 81.2557 46.7953 83.0852 46.7953ZM99.2077 29.6437L94.8626 24.2695C97.0733 22.44 99.4745 21.0679 102.066 20.1531C104.734 19.1621 107.669 18.781 110.871 19.0097L112.014 27.1281C109.651 26.8232 107.364 26.8613 105.154 27.2425C102.943 27.5474 100.961 28.3478 99.2077 29.6437Z" fill="#4F46E5"/>
<path d="M27.4425 18.6667C31.1016 18.6667 34.4175 18.9716 37.3905 19.5814C40.3634 20.1913 42.9171 21.106 45.0515 22.3257C47.1097 23.4691 48.6724 24.9175 49.7396 26.6707C50.8068 28.3478 51.3404 30.2535 51.3404 32.3879C51.3404 34.3699 50.8831 36.1613 49.9683 37.7621C49.0536 39.3629 47.8339 40.7351 46.3093 41.8785C44.7847 43.0982 43.1077 44.0129 41.2782 44.6228L36.247 42.3359C37.4667 41.5736 38.5339 40.8113 39.4487 40.049C40.3634 39.2867 41.0876 38.4482 41.6212 37.5334C42.0786 36.5424 42.3073 35.399 42.3073 34.1031C42.3073 32.9597 41.9261 31.9687 41.1638 31.1302C40.4015 30.2916 39.3343 29.6056 37.9622 29.072C36.5901 28.5384 34.9511 28.1191 33.0454 27.8142C31.1397 27.5093 29.0052 27.3568 26.6421 27.3568C23.5167 27.3568 20.9249 27.6617 18.8667 28.2716C16.8086 28.8052 15.284 29.6056 14.293 30.6728C13.2258 31.74 12.6922 32.9597 12.6922 34.3318C12.6922 35.7039 12.9971 36.8093 13.6069 37.6478C14.2168 38.4101 15.3602 38.9818 17.0372 39.3629C18.7143 39.8203 21.1536 40.049 24.3553 40.049C26.9471 40.049 29.4245 40.1252 31.7876 40.2777C34.0745 40.5064 36.2089 40.8875 38.1909 41.4211C40.0966 41.9547 41.7737 42.6408 43.222 43.4793C44.6704 44.3178 45.8138 45.3469 46.6523 46.5666C47.4146 47.8625 47.7958 49.3871 47.7958 51.1404C47.7958 53.4273 47.1097 55.4854 45.7376 57.3149C44.3655 59.2207 42.6503 60.9358 40.5921 62.4604L35.4466 59.2588C36.1327 58.4965 36.7425 57.8486 37.2761 57.3149C37.8097 56.7813 38.229 56.2477 38.5339 55.7141C38.8388 55.2568 38.9913 54.685 38.9913 53.999C38.9913 53.008 38.4196 52.1695 37.2761 51.4834C36.1327 50.7973 34.3032 50.3018 31.7876 49.9969C29.1958 49.692 25.7655 49.5396 21.4967 49.5396C17.9139 49.5396 14.9409 49.1584 12.5778 48.3961C10.1385 47.7101 8.23275 46.7191 6.86062 45.4232C5.48849 44.1273 4.53563 42.6408 4.00202 40.9637C3.39218 39.3629 3.08727 37.5715 3.08727 35.5896C3.08727 33.4552 3.54464 31.397 4.45939 29.415C5.37415 27.3568 6.82251 25.5273 8.80447 23.9265C10.7102 22.3257 13.2258 21.0679 16.3512 20.1531C19.4004 19.1622 23.0975 18.6667 27.4425 18.6667ZM28.929 56.6289C32.6643 56.6289 35.9802 57.4293 38.877 59.0301C41.7737 60.7071 44.0605 62.9178 45.7376 65.6621C47.3384 68.4063 48.1388 71.4936 48.1388 74.9239C48.1388 78.3542 47.3384 81.4415 45.7376 84.1858C44.0606 87.0063 41.7737 89.2169 38.877 90.8177C35.9802 92.4948 32.6643 93.3333 28.929 93.3333C25.1176 93.3333 21.7635 92.4948 18.8667 90.8177C15.97 89.2169 13.7213 87.0063 12.1204 84.1858C10.4434 81.4415 9.60488 78.3542 9.60488 74.9239C9.60488 71.4936 10.4434 68.4063 12.1204 65.6621C13.7213 62.9178 15.97 60.7071 18.8667 59.0301C21.7635 57.4293 25.1176 56.6289 28.929 56.6289ZM28.929 65.2047C27.0233 65.2047 25.3462 65.6239 23.8979 66.4625C22.4495 67.301 21.3061 68.4444 20.4676 69.8928C19.629 71.4174 19.2098 73.0944 19.2098 74.9239C19.2098 76.8297 19.629 78.4686 20.4676 79.8407C21.3061 81.2891 22.4876 82.4325 24.0122 83.271C25.4606 84.1096 27.0995 84.5288 28.929 84.5288C30.6823 84.5288 32.2831 84.1096 33.7315 83.271C35.1798 82.4325 36.3614 81.2891 37.2761 79.8407C38.1147 78.3924 38.5339 76.7534 38.5339 74.9239C38.5339 73.1707 38.1147 71.5317 37.2761 70.0071C36.4376 68.5588 35.2942 67.3772 33.8458 66.4625C32.3975 65.6239 30.7585 65.2047 28.929 65.2047ZM12.8065 82.3563L17.1516 87.7305C14.9409 89.56 12.5397 90.9321 9.94792 91.8468C7.27989 92.8378 4.34506 93.219 1.14342 92.9903L-1.66496e-05 84.8719C2.36309 85.1768 4.64997 85.1387 6.86062 84.7575C9.07127 84.4526 11.0532 83.6522 12.8065 82.3563Z" fill="#4F46E5"/>
</svg>
