<svg width="20" height="20" viewBox="0 0 20 20" fill="none" xmlns="http://www.w3.org/2000/svg">
<path d="M18.3334 14.6725C17.6784 16.5725 15.7176 19.9367 13.6976 19.9733C12.3576 19.9992 11.9268 19.1792 10.3951 19.1792C8.86424 19.1792 8.38507 19.9483 7.11841 19.9983C4.97507 20.0808 1.66675 15.1425 1.66675 10.8358C1.66675 6.88 4.42341 4.91917 6.83176 4.88335C8.12341 4.86 9.34341 5.75417 10.1309 5.75417C10.9218 5.75417 12.4034 4.67917 13.9609 4.83666C14.6126 4.86417 16.4434 5.09917 17.6184 6.81752C14.5009 8.85252 14.9868 13.1083 18.3334 14.6725ZM13.9818 0C11.6268 0.095 9.70507 2.56583 9.97341 4.60917C12.1501 4.77835 14.2384 2.33833 13.9818 0Z" fill="#818CF8"/>
</svg>
