<svg width="213" height="25" viewBox="0 0 213 25" fill="none" xmlns="http://www.w3.org/2000/svg">
<path d="M21.4215 24.3039C20.4947 24.3039 19.6547 24.2267 18.9017 24.0722C18.1487 23.9178 17.5019 23.6861 16.9612 23.3771C16.4399 23.0875 16.0441 22.7207 15.7738 22.2766C15.5034 21.8518 15.3683 21.3691 15.3683 20.8284C15.3683 20.3264 15.4841 19.8727 15.7158 19.4672C15.9475 19.0617 16.2565 18.7142 16.6426 18.4246C17.0288 18.1156 17.4536 17.8839 17.917 17.7295L19.1913 18.3087C18.8824 18.5018 18.6121 18.6949 18.3804 18.888C18.1487 19.081 17.9653 19.2934 17.8301 19.5251C17.7143 19.7761 17.6563 20.0658 17.6563 20.394C17.6563 20.6836 17.7529 20.9346 17.946 21.147C18.139 21.3594 18.4094 21.5332 18.7569 21.6684C19.1045 21.8035 19.5196 21.9097 20.0023 21.9869C20.485 22.0642 21.0256 22.1028 21.6242 22.1028C22.4158 22.1028 23.0723 22.0256 23.5936 21.8711C24.115 21.7359 24.5011 21.5332 24.7521 21.2629C25.0225 20.9926 25.1576 20.6836 25.1576 20.3361C25.1576 19.9885 25.0804 19.7086 24.9259 19.4962C24.7715 19.3031 24.4818 19.1583 24.057 19.0617C23.6323 18.9459 23.0144 18.888 22.2034 18.888C21.547 18.888 20.9194 18.8686 20.3209 18.83C19.7416 18.7721 19.201 18.6756 18.699 18.5404C18.2163 18.4052 17.7915 18.2315 17.4246 18.0191C17.0578 17.8067 16.7681 17.546 16.5557 17.2371C16.3627 16.9088 16.2661 16.5227 16.2661 16.0786C16.2661 15.4993 16.4399 14.978 16.7874 14.5146C17.135 14.0319 17.5694 13.5975 18.0908 13.2113L19.3941 14.0223C19.2203 14.2153 19.0658 14.3795 18.9307 14.5146C18.7955 14.6498 18.6893 14.7849 18.6121 14.9201C18.5349 15.0359 18.4962 15.1808 18.4962 15.3545C18.4962 15.6055 18.6411 15.8179 18.9307 15.9917C19.2203 16.1655 19.6837 16.291 20.3209 16.3682C20.9774 16.4454 21.8462 16.4841 22.9275 16.4841C23.835 16.4841 24.588 16.5806 25.1866 16.7737C25.8044 16.9475 26.2872 17.1985 26.6347 17.5267C26.9823 17.855 27.2236 18.2315 27.3588 18.6563C27.5132 19.0617 27.5905 19.5155 27.5905 20.0175C27.5905 20.5581 27.4746 21.0795 27.2429 21.5815C27.0112 22.1028 26.6444 22.5662 26.1423 22.9717C25.6596 23.3771 25.0225 23.6957 24.2308 23.9274C23.4585 24.1784 22.522 24.3039 21.4215 24.3039ZM21.0449 14.6884C20.0988 14.6884 19.2589 14.4857 18.5252 14.0802C17.7915 13.6554 17.2122 13.0955 16.7874 12.4004C16.382 11.7052 16.1792 10.9233 16.1792 10.0544C16.1792 9.18551 16.382 8.40352 16.7874 7.70842C17.2122 6.99401 17.7915 6.43407 18.5252 6.02859C19.2589 5.60381 20.0988 5.39142 21.0449 5.39142C22.0104 5.39142 22.8599 5.60381 23.5936 6.02859C24.3274 6.43407 24.897 6.99401 25.3024 7.70842C25.7272 8.40352 25.9396 9.18551 25.9396 10.0544C25.9396 10.9233 25.7272 11.7052 25.3024 12.4004C24.897 13.0955 24.3274 13.6554 23.5936 14.0802C22.8599 14.4857 22.0104 14.6884 21.0449 14.6884ZM21.0449 12.5162C21.5276 12.5162 21.9524 12.41 22.3193 12.1976C22.6862 11.9852 22.9758 11.6956 23.1882 11.3287C23.4006 10.9426 23.5068 10.5178 23.5068 10.0544C23.5068 9.57168 23.4006 9.15655 23.1882 8.809C22.9758 8.44214 22.6765 8.15251 22.2903 7.94012C21.9235 7.72773 21.5083 7.62153 21.0449 7.62153C20.6008 7.62153 20.1954 7.72773 19.8285 7.94012C19.4617 8.15251 19.1624 8.44214 18.9307 8.809C18.7183 9.17585 18.6121 9.59098 18.6121 10.0544C18.6121 10.4985 18.7183 10.9136 18.9307 11.2998C19.1431 11.6666 19.4327 11.9659 19.7996 12.1976C20.1664 12.41 20.5815 12.5162 21.0449 12.5162ZM25.1287 8.17182L24.0281 6.81058C24.588 6.34718 25.1962 5.99963 25.8527 5.76793C26.5285 5.51692 27.2719 5.42038 28.0828 5.47831L28.3725 7.53465C27.7739 7.45741 27.1947 7.46707 26.6347 7.56361C26.0748 7.64084 25.5727 7.84358 25.1287 8.17182Z" fill="#111827"/>
<path d="M6.95104 5.39143C7.87784 5.39143 8.71776 5.46866 9.47078 5.62313C10.2238 5.7776 10.8706 6.00929 11.4113 6.31823C11.9326 6.60785 12.3284 6.97471 12.5987 7.4188C12.8691 7.84359 13.0042 8.3263 13.0042 8.86693C13.0042 9.36895 12.8884 9.82269 12.6567 10.2282C12.425 10.6336 12.116 10.9812 11.7299 11.2708C11.3437 11.5798 10.9189 11.8115 10.4555 11.9659L9.18116 11.3867C9.49009 11.1936 9.76041 11.0005 9.99211 10.8074C10.2238 10.6143 10.4072 10.4019 10.5424 10.1702C10.6582 9.91924 10.7162 9.62961 10.7162 9.30137C10.7162 9.01174 10.6196 8.76073 10.4265 8.54834C10.2335 8.33595 9.96315 8.16217 9.61559 8.02702C9.26804 7.89186 8.85292 7.78566 8.37021 7.70843C7.8875 7.6312 7.34686 7.59258 6.74831 7.59258C5.95666 7.59258 5.30018 7.66981 4.77885 7.82428C4.25753 7.95944 3.87136 8.16218 3.62035 8.43249C3.35004 8.70281 3.21488 9.01174 3.21488 9.35929C3.21488 9.70684 3.29211 9.98682 3.44658 10.1992C3.60104 10.3923 3.89067 10.5371 4.31545 10.6336C4.74024 10.7495 5.3581 10.8074 6.16906 10.8074C6.82554 10.8074 7.45306 10.8267 8.05162 10.8653C8.63087 10.9233 9.1715 11.0198 9.67352 11.155C10.1562 11.2901 10.581 11.4639 10.9479 11.6763C11.3147 11.8887 11.6044 12.1493 11.8167 12.4583C12.0098 12.7865 12.1064 13.1727 12.1064 13.6168C12.1064 14.196 11.9326 14.7174 11.585 15.1808C11.2375 15.6635 10.8031 16.0979 10.2817 16.4841L8.97842 15.6731C9.1522 15.48 9.30666 15.3159 9.44182 15.1808C9.57698 15.0456 9.68317 14.9104 9.76041 14.7753C9.83764 14.6594 9.87626 14.5146 9.87626 14.3408C9.87626 14.0898 9.73145 13.8774 9.44182 13.7037C9.15219 13.5299 8.68879 13.4044 8.05162 13.3272C7.39514 13.2499 6.52626 13.2113 5.44499 13.2113C4.5375 13.2113 3.78447 13.1148 3.18591 12.9217C2.56805 12.7479 2.08534 12.4969 1.73779 12.1687C1.39024 11.8404 1.14888 11.4639 1.01373 11.0391C0.859258 10.6336 0.782025 10.1799 0.782025 9.67788C0.782025 9.13725 0.897874 8.61592 1.12958 8.1139C1.36128 7.59258 1.72813 7.12918 2.23015 6.7237C2.71286 6.31823 3.35004 5.99964 4.14168 5.76794C4.91401 5.51693 5.85047 5.39143 6.95104 5.39143ZM7.32756 15.007C8.27367 15.007 9.11358 15.2097 9.8473 15.6152C10.581 16.04 11.1603 16.5999 11.585 17.295C11.9905 17.9901 12.1933 18.7721 12.1933 19.641C12.1933 20.5099 11.9905 21.2919 11.585 21.987C11.1603 22.7014 10.581 23.2613 9.8473 23.6668C9.11358 24.0916 8.27367 24.304 7.32756 24.304C6.36214 24.304 5.51257 24.0916 4.77885 23.6668C4.04514 23.2613 3.47554 22.7014 3.07006 21.987C2.64528 21.2919 2.43289 20.5099 2.43289 19.641C2.43289 18.7721 2.64528 17.9901 3.07006 17.295C3.47554 16.5999 4.04514 16.04 4.77885 15.6152C5.51257 15.2097 6.36214 15.007 7.32756 15.007ZM7.32756 17.1792C6.84485 17.1792 6.42006 17.2854 6.05321 17.4978C5.68635 17.7102 5.39672 17.9998 5.18433 18.3666C4.97194 18.7528 4.86574 19.1776 4.86574 19.641C4.86574 20.1237 4.97194 20.5388 5.18433 20.8864C5.39672 21.2532 5.696 21.5429 6.08217 21.7553C6.44903 21.9676 6.86416 22.0738 7.32756 22.0738C7.77165 22.0738 8.17712 21.9676 8.54398 21.7553C8.91084 21.5429 9.21012 21.2532 9.44182 20.8864C9.65421 20.5195 9.76041 20.1044 9.76041 19.641C9.76041 19.1969 9.65421 18.7818 9.44182 18.3956C9.22943 18.0287 8.9398 17.7295 8.57294 17.4978C8.20609 17.2854 7.79096 17.1792 7.32756 17.1792ZM3.24384 21.5236L4.34442 22.8848C3.78448 23.3482 3.17626 23.6957 2.51978 23.9274C1.84399 24.1785 1.10061 24.275 0.289663 24.2171L3.79596e-05 22.1607C0.598597 22.238 1.17785 22.2283 1.73779 22.1318C2.29773 22.0545 2.79975 21.8518 3.24384 21.5236Z" fill="#111827"/>
<path d="M37.2329 19.6515C36.2873 19.6515 35.4173 19.5002 34.623 19.1976C33.8286 18.895 33.1383 18.46 32.5521 17.8927C31.9847 17.3064 31.5402 16.5877 31.2187 15.7366C30.8972 14.8856 30.7365 13.921 30.7365 12.843C30.7365 11.7461 30.8972 10.7721 31.2187 9.92104C31.5402 9.05106 31.9752 8.32293 32.5237 7.73664C33.0911 7.15035 33.7435 6.69645 34.4811 6.37494C35.2376 6.05342 36.0414 5.89267 36.8925 5.89267C37.6301 5.89267 38.3298 6.02506 38.9918 6.28983C39.6726 6.55461 40.2589 6.95177 40.7506 7.48132C41.2613 7.99196 41.6584 8.64444 41.9421 9.43877C42.2447 10.2331 42.396 11.1598 42.396 12.2189C42.396 12.408 42.396 12.6255 42.396 12.8714C42.396 13.0983 42.3866 13.2969 42.3677 13.4671H33.4599C33.4977 14.148 33.6301 14.7437 33.857 15.2544C34.084 15.7461 34.3677 16.1527 34.7081 16.4742C35.0674 16.7957 35.474 17.0321 35.9279 17.1834C36.3818 17.3347 36.8547 17.4104 37.3464 17.4104C37.7814 17.4104 38.1785 17.3726 38.5379 17.2969C38.9161 17.2024 39.2755 17.0605 39.6159 16.8714C39.9563 16.6823 40.2684 16.4269 40.5521 16.1054L42.0272 17.5522C41.6301 18.0251 41.1856 18.4222 40.6939 18.7437C40.2022 19.0463 39.6632 19.2733 39.0769 19.4246C38.5095 19.5759 37.8948 19.6515 37.2329 19.6515ZM33.5166 11.3395H39.6443C39.6443 10.8099 39.5781 10.3466 39.4457 9.94941C39.3133 9.55224 39.1147 9.21182 38.8499 8.92813C38.6041 8.64444 38.3015 8.4364 37.9421 8.30402C37.5828 8.15272 37.1856 8.07707 36.7506 8.07707C36.3346 8.07707 35.9469 8.14326 35.5875 8.27565C35.2471 8.40803 34.935 8.60662 34.6513 8.87139C34.3677 9.13617 34.1218 9.47659 33.9138 9.89267C33.7246 10.2898 33.5922 10.7721 33.5166 11.3395Z" fill="#6B7280"/>
<path d="M51.4173 19.6515C50.4717 19.6515 49.6017 19.5002 48.8074 19.1976C48.013 18.895 47.3227 18.46 46.7365 17.8927C46.1691 17.3064 45.7246 16.5877 45.4031 15.7366C45.0816 14.8856 44.9208 13.921 44.9208 12.843C44.9208 11.7461 45.0816 10.7721 45.4031 9.92104C45.7246 9.05106 46.1596 8.32293 46.7081 7.73664C47.2755 7.15035 47.9279 6.69645 48.6655 6.37494C49.422 6.05342 50.2258 5.89267 51.0769 5.89267C51.8145 5.89267 52.5142 6.02506 53.1762 6.28983C53.857 6.55461 54.4433 6.95177 54.935 7.48132C55.4457 7.99196 55.8428 8.64444 56.1265 9.43877C56.4291 10.2331 56.5804 11.1598 56.5804 12.2189C56.5804 12.408 56.5804 12.6255 56.5804 12.8714C56.5804 13.0983 56.571 13.2969 56.5521 13.4671H47.6443C47.6821 14.148 47.8145 14.7437 48.0414 15.2544C48.2684 15.7461 48.5521 16.1527 48.8925 16.4742C49.2518 16.7957 49.6584 17.0321 50.1123 17.1834C50.5662 17.3347 51.039 17.4104 51.5308 17.4104C51.9658 17.4104 52.3629 17.3726 52.7223 17.2969C53.1005 17.2024 53.4599 17.0605 53.8003 16.8714C54.1407 16.6823 54.4528 16.4269 54.7365 16.1054L56.2116 17.5522C55.8145 18.0251 55.37 18.4222 54.8783 18.7437C54.3866 19.0463 53.8476 19.2733 53.2613 19.4246C52.6939 19.5759 52.0792 19.6515 51.4173 19.6515ZM47.701 11.3395H53.8286C53.8286 10.8099 53.7625 10.3466 53.6301 9.94941C53.4977 9.55224 53.2991 9.21182 53.0343 8.92813C52.7885 8.64444 52.4859 8.4364 52.1265 8.30402C51.7672 8.15272 51.37 8.07707 50.935 8.07707C50.519 8.07707 50.1312 8.14326 49.7719 8.27565C49.4315 8.40803 49.1194 8.60662 48.8357 8.87139C48.5521 9.13617 48.3062 9.47659 48.0982 9.89267C47.909 10.2898 47.7766 10.7721 47.701 11.3395Z" fill="#6B7280"/>
<path d="M63.6726 13.1834L62.3677 14.4033V19.3395H59.5308V0.360753H62.3393H62.623V0.616072C62.5095 0.729547 62.4338 0.852479 62.396 0.984867C62.3771 1.11725 62.3677 1.3442 62.3677 1.66572V11.3962L67.9279 6.11962C68.0603 6.15744 68.2022 6.18581 68.3535 6.20472C68.5048 6.22364 68.6561 6.24255 68.8074 6.26146C68.9776 6.26146 69.1383 6.27092 69.2896 6.28983C69.4409 6.28983 69.5733 6.28983 69.6868 6.28983H70.9634L65.6584 11.453L71.7294 19.3395L68.4386 19.453L63.6726 13.1834Z" fill="#6B7280"/>
<path d="M75.6726 24.304C75.0485 24.304 74.4906 24.2 73.9989 23.992C73.5071 23.8028 73.0343 23.5097 72.5804 23.1125L73.6301 21.1834L73.7719 20.9565L73.9705 21.07C74.0272 21.2024 74.0934 21.3253 74.1691 21.4388C74.2636 21.5712 74.4433 21.7319 74.7081 21.921C74.8594 21.9778 75.0201 22.0156 75.1904 22.0345C75.3606 22.0723 75.5308 22.0912 75.701 22.0912C76.136 22.0912 76.5048 21.9778 76.8074 21.7508C77.11 21.5428 77.3747 21.2118 77.6017 20.7579C77.8476 20.304 78.0934 19.7177 78.3393 18.9991L81.0627 11.0558C81.3464 10.2236 81.5922 9.41985 81.8003 8.64444C82.0272 7.85011 82.1691 7.03688 82.2258 6.20472H84.8925C84.8168 7.0747 84.6182 7.97305 84.2967 8.89976C83.9941 9.82647 83.6821 10.7248 83.3606 11.5948L80.0982 20.5877C79.6064 21.9683 78.9918 22.9329 78.2542 23.4813C77.5166 24.0298 76.6561 24.304 75.6726 24.304ZM73.1194 6.20472H75.9847L79.9563 16.531L78.5379 19.6515L73.1194 6.20472Z" fill="#6B7280"/>
<path d="M87.2187 22.0061V19.7083H99.5591V22.0061H87.2187Z" fill="#6B7280"/>
<path d="M108.24 19.6515C107.767 19.6515 107.304 19.5759 106.85 19.4246C106.415 19.2922 105.999 19.0936 105.602 18.8288C105.223 18.5452 104.883 18.2047 104.58 17.8076L103.985 19.3395H101.942V0.360753H104.779H105.034V0.616072C104.94 0.729547 104.874 0.852479 104.836 0.984867C104.817 1.11725 104.807 1.3442 104.807 1.66572V7.87848C104.996 7.57588 105.223 7.31111 105.488 7.08416C105.753 6.83829 106.037 6.63026 106.339 6.46004C106.661 6.27092 106.992 6.12907 107.332 6.03451C107.692 5.93995 108.041 5.89267 108.382 5.89267C109.176 5.91158 109.895 6.06288 110.538 6.34657C111.2 6.61134 111.767 7.02742 112.24 7.5948C112.713 8.14326 113.072 8.83357 113.318 9.66572C113.583 10.4979 113.715 11.4719 113.715 12.5877C113.715 13.7792 113.564 14.8194 113.261 15.7083C112.978 16.5972 112.58 17.3347 112.07 17.921C111.559 18.5073 110.973 18.9423 110.311 19.226C109.649 19.5097 108.959 19.6515 108.24 19.6515ZM107.758 17.382C108.174 17.382 108.562 17.3064 108.921 17.1551C109.299 17.0038 109.63 16.7485 109.914 16.3891C110.216 16.0298 110.453 15.557 110.623 14.9707C110.793 14.3844 110.878 13.6752 110.878 12.843C110.878 12.0676 110.803 11.3868 110.651 10.8005C110.519 10.2142 110.32 9.72246 110.056 9.32529C109.791 8.90922 109.46 8.60662 109.063 8.41749C108.684 8.20945 108.268 8.10543 107.814 8.10543C107.19 8.10543 106.651 8.29456 106.197 8.67281C105.762 9.05106 105.422 9.59007 105.176 10.2898C104.93 10.9707 104.807 11.7839 104.807 12.7295C104.807 13.4671 104.864 14.1291 104.978 14.7154C105.091 15.2827 105.261 15.765 105.488 16.1622C105.734 16.5593 106.037 16.8619 106.396 17.07C106.774 17.278 107.228 17.382 107.758 17.382Z" fill="#6B7280"/>
<path d="M120.751 19.6515C120.221 19.6515 119.72 19.5759 119.247 19.4246C118.793 19.2922 118.377 19.0747 117.999 18.7721C117.621 18.4695 117.29 18.0912 117.006 17.6373C116.741 17.1834 116.533 16.635 116.382 15.992C116.249 15.3489 116.183 14.6208 116.183 13.8076L116.212 6.20472H118.992V13.8076C118.992 14.4695 119.049 15.0369 119.162 15.5097C119.294 15.9636 119.465 16.3324 119.673 16.6161C119.9 16.8998 120.155 17.1078 120.439 17.2402C120.722 17.3537 121.025 17.4104 121.346 17.4104C121.762 17.4104 122.15 17.3347 122.509 17.1834C122.869 17.0321 123.181 16.8052 123.446 16.5026C123.729 16.1811 123.937 15.7839 124.07 15.3111C124.221 14.8194 124.297 14.252 124.297 13.609V6.20472H127.134V17.2686C127.134 17.6468 127.143 18.0061 127.162 18.3466C127.2 18.6681 127.285 18.9991 127.417 19.3395H124.779C124.684 19.1314 124.618 18.9329 124.58 18.7437C124.543 18.5357 124.514 18.3371 124.495 18.148C124.495 17.94 124.495 17.7319 124.495 17.5239C124.306 17.8832 124.07 18.1953 123.786 18.46C123.521 18.7248 123.219 18.9518 122.878 19.1409C122.557 19.3111 122.216 19.434 121.857 19.5097C121.517 19.6043 121.148 19.6515 120.751 19.6515Z" fill="#6B7280"/>
<path d="M136.127 19.6515C135.332 19.6515 134.585 19.5759 133.885 19.4246C133.186 19.2733 132.524 19.0463 131.9 18.7437C131.294 18.4411 130.736 18.0534 130.226 17.5806L131.531 15.1976L131.701 14.9423L131.9 15.0558C131.937 15.2071 131.985 15.3678 132.041 15.5381C132.098 15.6894 132.231 15.8785 132.439 16.1054C132.892 16.5026 133.413 16.8241 133.999 17.07C134.585 17.2969 135.304 17.4104 136.155 17.4104C136.741 17.4104 137.233 17.3442 137.63 17.2118C138.046 17.0605 138.368 16.8619 138.595 16.6161C138.822 16.3513 138.935 16.0582 138.935 15.7366C138.935 15.4908 138.869 15.2827 138.736 15.1125C138.623 14.9234 138.443 14.7532 138.197 14.6019C137.952 14.4317 137.63 14.2709 137.233 14.1196C136.836 13.9494 136.353 13.7887 135.786 13.6374C134.822 13.3537 133.98 13.0321 133.261 12.6728C132.543 12.2946 131.985 11.8501 131.588 11.3395C131.19 10.8288 130.992 10.2236 130.992 9.52387C130.992 8.82411 131.19 8.20945 131.588 7.6799C132.004 7.13144 132.59 6.69645 133.346 6.37494C134.103 6.05342 135.001 5.89267 136.041 5.89267C136.609 5.89267 137.138 5.93995 137.63 6.03451C138.141 6.11016 138.604 6.23309 139.02 6.40331C139.455 6.57352 139.862 6.79101 140.24 7.05579C140.618 7.30165 140.978 7.5948 141.318 7.93522L139.871 9.8643L139.701 10.0912L139.502 9.92104C139.483 9.76974 139.436 9.62789 139.361 9.49551C139.304 9.36312 139.171 9.1929 138.963 8.98487C138.547 8.68227 138.093 8.45532 137.602 8.30402C137.11 8.15272 136.609 8.07707 136.098 8.07707C135.436 8.07707 134.85 8.19054 134.339 8.41749C133.848 8.64444 133.602 8.98487 133.602 9.43877C133.602 9.70354 133.706 9.9494 133.914 10.1764C134.141 10.4033 134.5 10.6303 134.992 10.8572C135.483 11.0652 136.155 11.2827 137.006 11.5097C138.084 11.7934 138.954 12.1243 139.616 12.5026C140.278 12.8619 140.76 13.2875 141.063 13.7792C141.384 14.2709 141.545 14.8478 141.545 15.5097C141.545 16.2473 141.337 16.9376 140.921 17.5806C140.524 18.2047 139.918 18.7059 139.105 19.0842C138.292 19.4624 137.299 19.6515 136.127 19.6515Z" fill="#6B7280"/>
<path d="M145.573 19.3395V17.0983H148.836V8.44586H145.715V6.20472H151.673V17.0983H154.651V19.3395H145.573ZM150.084 3.85012C149.573 3.85012 149.138 3.6799 148.779 3.33948C148.439 2.98014 148.268 2.56406 148.268 2.09125C148.268 1.58061 148.439 1.15508 148.779 0.814653C149.119 0.474228 149.554 0.304016 150.084 0.304016C150.576 0.304016 151.001 0.483685 151.361 0.843023C151.739 1.20236 151.928 1.61844 151.928 2.09125C151.928 2.56406 151.739 2.98014 151.361 3.33948C151.001 3.6799 150.576 3.85012 150.084 3.85012Z" fill="#6B7280"/>
<path d="M158.907 19.3395V6.20472H161.744V8.21891C162.065 7.7461 162.424 7.33948 162.822 6.99905C163.219 6.65863 163.663 6.39385 164.155 6.20472C164.647 5.99669 165.176 5.89267 165.744 5.89267C166.481 5.89267 167.162 6.08179 167.786 6.46004C168.41 6.83829 168.911 7.43404 169.29 8.24728C169.668 9.0416 169.857 10.1007 169.857 11.4246V19.3395H167.049V11.453C167.049 10.6775 166.963 10.044 166.793 9.55224C166.623 9.06052 166.377 8.70118 166.056 8.47423C165.753 8.24728 165.384 8.1338 164.949 8.1338C164.571 8.1338 164.193 8.21891 163.814 8.38912C163.436 8.55934 163.086 8.79574 162.765 9.09834C162.462 9.38203 162.216 9.74137 162.027 10.1764C161.838 10.5924 161.744 11.0652 161.744 11.5948V19.3395H158.907Z" fill="#6B7280"/>
<path d="M179.077 19.6515C178.131 19.6515 177.261 19.5002 176.467 19.1976C175.673 18.895 174.982 18.46 174.396 17.8927C173.829 17.3064 173.384 16.5877 173.063 15.7366C172.741 14.8856 172.58 13.921 172.58 12.843C172.58 11.7461 172.741 10.7721 173.063 9.92104C173.384 9.05106 173.819 8.32293 174.368 7.73664C174.935 7.15035 175.587 6.69645 176.325 6.37494C177.082 6.05342 177.885 5.89267 178.736 5.89267C179.474 5.89267 180.174 6.02506 180.836 6.28983C181.517 6.55461 182.103 6.95177 182.595 7.48132C183.105 7.99196 183.502 8.64444 183.786 9.43877C184.089 10.2331 184.24 11.1598 184.24 12.2189C184.24 12.408 184.24 12.6255 184.24 12.8714C184.24 13.0983 184.231 13.2969 184.212 13.4671H175.304C175.342 14.148 175.474 14.7437 175.701 15.2544C175.928 15.7461 176.212 16.1527 176.552 16.4742C176.911 16.7957 177.318 17.0321 177.772 17.1834C178.226 17.3347 178.699 17.4104 179.19 17.4104C179.625 17.4104 180.022 17.3726 180.382 17.2969C180.76 17.2024 181.119 17.0605 181.46 16.8714C181.8 16.6823 182.112 16.4269 182.396 16.1054L183.871 17.5522C183.474 18.0251 183.03 18.4222 182.538 18.7437C182.046 19.0463 181.507 19.2733 180.921 19.4246C180.353 19.5759 179.739 19.6515 179.077 19.6515ZM175.361 11.3395H181.488C181.488 10.8099 181.422 10.3466 181.29 9.94941C181.157 9.55224 180.959 9.21182 180.694 8.92813C180.448 8.64444 180.145 8.4364 179.786 8.30402C179.427 8.15272 179.03 8.07707 178.595 8.07707C178.179 8.07707 177.791 8.14326 177.431 8.27565C177.091 8.40803 176.779 8.60662 176.495 8.87139C176.212 9.13617 175.966 9.47659 175.758 9.89267C175.569 10.2898 175.436 10.7721 175.361 11.3395Z" fill="#6B7280"/>
<path d="M192.864 19.6515C192.07 19.6515 191.323 19.5759 190.623 19.4246C189.923 19.2733 189.261 19.0463 188.637 18.7437C188.032 18.4411 187.474 18.0534 186.963 17.5806L188.268 15.1976L188.439 14.9423L188.637 15.0558C188.675 15.2071 188.722 15.3678 188.779 15.5381C188.836 15.6894 188.968 15.8785 189.176 16.1054C189.63 16.5026 190.15 16.8241 190.736 17.07C191.323 17.2969 192.041 17.4104 192.892 17.4104C193.479 17.4104 193.97 17.3442 194.368 17.2118C194.784 17.0605 195.105 16.8619 195.332 16.6161C195.559 16.3513 195.673 16.0582 195.673 15.7366C195.673 15.4908 195.606 15.2827 195.474 15.1125C195.361 14.9234 195.181 14.7532 194.935 14.6019C194.689 14.4317 194.368 14.2709 193.971 14.1196C193.573 13.9494 193.091 13.7887 192.524 13.6374C191.559 13.3537 190.718 13.0321 189.999 12.6728C189.28 12.2946 188.722 11.8501 188.325 11.3395C187.928 10.8288 187.729 10.2236 187.729 9.52387C187.729 8.82411 187.928 8.20945 188.325 7.6799C188.741 7.13144 189.327 6.69645 190.084 6.37494C190.84 6.05342 191.739 5.89267 192.779 5.89267C193.346 5.89267 193.876 5.93995 194.368 6.03451C194.878 6.11016 195.342 6.23309 195.758 6.40331C196.193 6.57352 196.599 6.79101 196.978 7.05579C197.356 7.30165 197.715 7.5948 198.056 7.93522L196.609 9.8643L196.439 10.0912L196.24 9.92104C196.221 9.76974 196.174 9.62789 196.098 9.49551C196.041 9.36312 195.909 9.1929 195.701 8.98487C195.285 8.68227 194.831 8.45532 194.339 8.30402C193.848 8.15272 193.346 8.07707 192.836 8.07707C192.174 8.07707 191.588 8.19054 191.077 8.41749C190.585 8.64444 190.339 8.98487 190.339 9.43877C190.339 9.70354 190.443 9.9494 190.651 10.1764C190.878 10.4033 191.238 10.6303 191.729 10.8572C192.221 11.0652 192.892 11.2827 193.744 11.5097C194.822 11.7934 195.692 12.1243 196.353 12.5026C197.015 12.8619 197.498 13.2875 197.8 13.7792C198.122 14.2709 198.283 14.8478 198.283 15.5097C198.283 16.2473 198.075 16.9376 197.658 17.5806C197.261 18.2047 196.656 18.7059 195.843 19.0842C195.03 19.4624 194.037 19.6515 192.864 19.6515Z" fill="#6B7280"/>
<path d="M207.049 19.6515C206.254 19.6515 205.507 19.5759 204.807 19.4246C204.108 19.2733 203.446 19.0463 202.822 18.7437C202.216 18.4411 201.658 18.0534 201.148 17.5806L202.453 15.1976L202.623 14.9423L202.822 15.0558C202.859 15.2071 202.907 15.3678 202.963 15.5381C203.02 15.6894 203.153 15.8785 203.361 16.1054C203.814 16.5026 204.335 16.8241 204.921 17.07C205.507 17.2969 206.226 17.4104 207.077 17.4104C207.663 17.4104 208.155 17.3442 208.552 17.2118C208.968 17.0605 209.29 16.8619 209.517 16.6161C209.744 16.3513 209.857 16.0582 209.857 15.7366C209.857 15.4908 209.791 15.2827 209.658 15.1125C209.545 14.9234 209.365 14.7532 209.119 14.6019C208.874 14.4317 208.552 14.2709 208.155 14.1196C207.758 13.9494 207.275 13.7887 206.708 13.6374C205.744 13.3537 204.902 13.0321 204.183 12.6728C203.465 12.2946 202.907 11.8501 202.51 11.3395C202.112 10.8288 201.914 10.2236 201.914 9.52387C201.914 8.82411 202.112 8.20945 202.51 7.6799C202.926 7.13144 203.512 6.69645 204.268 6.37494C205.025 6.05342 205.923 5.89267 206.963 5.89267C207.531 5.89267 208.06 5.93995 208.552 6.03451C209.063 6.11016 209.526 6.23309 209.942 6.40331C210.377 6.57352 210.784 6.79101 211.162 7.05579C211.54 7.30165 211.9 7.5948 212.24 7.93522L210.793 9.8643L210.623 10.0912L210.424 9.92104C210.405 9.76974 210.358 9.62789 210.283 9.49551C210.226 9.36312 210.093 9.1929 209.885 8.98487C209.469 8.68227 209.015 8.45532 208.524 8.30402C208.032 8.15272 207.531 8.07707 207.02 8.07707C206.358 8.07707 205.772 8.19054 205.261 8.41749C204.77 8.64444 204.524 8.98487 204.524 9.43877C204.524 9.70354 204.628 9.9494 204.836 10.1764C205.063 10.4033 205.422 10.6303 205.914 10.8572C206.405 11.0652 207.077 11.2827 207.928 11.5097C209.006 11.7934 209.876 12.1243 210.538 12.5026C211.2 12.8619 211.682 13.2875 211.985 13.7792C212.306 14.2709 212.467 14.8478 212.467 15.5097C212.467 16.2473 212.259 16.9376 211.843 17.5806C211.446 18.2047 210.84 18.7059 210.027 19.0842C209.214 19.4624 208.221 19.6515 207.049 19.6515Z" fill="#6B7280"/>
</svg>
