<svg width="20" height="20" viewBox="0 0 20 20" fill="none" xmlns="http://www.w3.org/2000/svg">
<g clip-path="url(#clip0_15_6362)">
<path d="M19.3794 16.0583C18.6927 15.8181 18.399 15.4994 18.4274 15.0238C18.4566 14.4686 18.0878 14.062 17.9127 13.9013C18.0185 13.5562 18.3277 12.362 17.913 11.3249C17.4674 10.2147 16.1068 8.51914 14.703 6.85244C14.1283 6.16797 14.1011 5.42397 14.0697 4.56246C14.0396 3.74075 14.0057 2.80933 13.4691 1.77391C12.8858 0.646496 11.7152 0 10.2574 0C9.39013 0 8.49994 0.231477 7.81491 0.635021C6.41214 1.46185 6.59756 3.26455 6.72026 4.45741C6.73707 4.62075 6.75289 4.77505 6.7621 4.90679C6.8438 6.07506 6.76947 6.6908 6.67227 6.87795C6.60939 7.00024 6.29981 7.34831 5.97219 7.71684C5.63336 8.09795 5.24923 8.52996 4.93435 8.93252C4.55867 9.41691 4.25539 10.1573 3.96209 10.8733C3.74749 11.3973 3.54479 11.8921 3.34747 12.1879C2.97347 12.7568 3.06653 13.2873 3.14423 13.5325C3.00265 13.6165 2.7981 13.7819 2.62543 14.0936C2.41674 14.4739 1.9933 14.6783 1.11278 14.8229C0.708153 14.8936 0.429135 15.0389 0.283253 15.2548C0.0709561 15.569 0.186587 15.9637 0.292083 16.2335C0.447946 16.6301 0.350819 16.8811 0.174225 17.3368C0.133532 17.442 0.087387 17.5611 0.040628 17.6924C-0.033004 17.8997 -0.00643802 18.0882 0.119404 18.2526C0.451938 18.6867 1.42228 18.8399 2.42119 18.9406C3.01762 19.001 3.6704 19.2048 4.30176 19.4019C4.92038 19.5949 5.56003 19.7946 6.14149 19.8552C6.22986 19.8647 6.31739 19.8695 6.40177 19.8695C7.27968 19.8695 7.67632 19.372 7.80209 19.1676C8.11742 19.1126 9.20501 18.9366 10.3259 18.913C11.4451 18.8858 12.5279 19.0745 12.8346 19.1332C12.9311 19.2908 13.1853 19.6509 13.5905 19.8364C13.8133 19.9404 14.1232 20 14.4407 20H14.4408C14.7799 20 15.4249 19.9315 15.9354 19.4728C16.4446 19.012 17.7168 18.4237 18.6459 17.9941C18.8532 17.8982 19.0471 17.8085 19.2172 17.7275C19.7391 17.4804 20.0238 17.1274 19.9984 16.7589C19.9772 16.4529 19.7401 16.1844 19.3794 16.0583ZM7.82635 15.9696C7.76139 15.5788 7.17272 15.1912 6.49099 14.7424C5.93357 14.3754 5.30175 13.9594 5.12769 13.6072C4.76797 12.8805 5.05152 11.6027 5.54591 10.9447C5.79022 10.6153 5.98977 10.1157 6.1828 9.63252C6.39118 9.11081 6.6067 8.5714 6.84771 8.33527C7.22938 7.96661 7.58211 7.24929 7.64461 6.68398C8.00202 6.97539 8.55645 7.34516 9.06865 7.34516C9.1475 7.34516 9.22405 7.33638 9.29722 7.31874C9.64765 7.23231 10.1631 6.97795 10.6615 6.73204C11.0913 6.51998 11.6212 6.25847 11.8206 6.23466C12.1625 6.65395 14.1492 10.4088 14.3522 11.6146C14.5128 12.5687 14.3431 13.3575 14.2578 13.6664C14.1892 13.6584 14.1073 13.6519 14.0213 13.6519C13.468 13.6519 13.3215 13.9099 13.2833 14.0639C13.1852 14.4641 13.1748 15.7438 13.1738 16.0313C12.9737 16.2484 11.9618 17.2709 10.509 17.4547C9.9173 17.5281 9.36471 17.5654 8.86672 17.5654C8.44105 17.5654 8.1694 17.5373 8.05661 17.5227L7.32659 16.8093C7.61444 16.6879 7.90221 16.4318 7.82635 15.9696ZM8.7527 4.20652C8.7299 4.21491 8.70748 4.2239 8.68544 4.23347C8.68321 4.19124 8.67807 4.14842 8.67016 4.10547C8.59046 3.71366 8.28626 3.42927 7.94697 3.42927C7.92186 3.42927 7.8966 3.43091 7.86888 3.43451C7.66703 3.46324 7.50871 3.59274 7.42195 3.77635C7.49804 3.37346 7.76531 3.07517 8.08241 3.07517C8.45479 3.07517 8.76936 3.50376 8.76936 4.01104C8.76936 4.07498 8.76391 4.13858 8.7527 4.20652ZM11.6462 4.50862C11.6803 4.4159 11.6987 4.31557 11.6987 4.21144C11.6987 3.7515 11.3571 3.39117 10.9209 3.39117C10.4946 3.39117 10.1478 3.75911 10.1478 4.21144C10.1478 4.24226 10.1496 4.27314 10.1529 4.30396C10.1304 4.29655 10.1083 4.28934 10.0868 4.28239C10.0378 4.1555 10.013 4.02311 10.013 3.88796C10.013 3.33799 10.4245 2.89051 10.9305 2.89051C11.4364 2.89051 11.848 3.33799 11.848 3.88796C11.848 4.11675 11.7741 4.33511 11.6462 4.50862ZM11.2732 5.57905C11.2659 5.60686 11.2504 5.61918 11.0788 5.69538C10.9922 5.73387 10.8844 5.78181 10.7495 5.85197L10.6594 5.8986C10.2971 6.08614 9.44894 6.52542 9.21868 6.55119C9.06228 6.56916 8.96553 6.51735 8.74802 6.39112C8.69895 6.3626 8.64674 6.3323 8.59108 6.30181C8.19896 6.08207 7.94674 5.84004 7.91825 5.74541C8.04609 5.66102 8.36296 5.44981 8.5252 5.32476C8.85451 5.06325 9.18589 4.88751 9.34989 4.88751C9.35857 4.88751 9.3664 4.88803 9.37454 4.88934C9.56726 4.91839 10.0426 5.08043 10.3898 5.19872C10.5503 5.25341 10.6889 5.30062 10.7864 5.33053C11.0936 5.42063 11.2537 5.53591 11.2732 5.57905ZM14.0332 17.8001C14.2065 17.1325 14.4061 16.2243 14.3738 15.6889C14.3663 15.5672 14.3537 15.4349 14.3415 15.3069C14.3187 15.0675 14.2849 14.7118 14.3198 14.6063C14.3267 14.6035 14.3344 14.6011 14.3429 14.5991C14.3444 14.9052 14.4222 15.5158 14.9939 15.7287C15.1643 15.7922 15.359 15.8243 15.5726 15.8243C16.1453 15.8243 16.7807 15.5844 17.041 15.3621C17.1943 15.2312 17.3232 15.071 17.4135 14.9442C17.4332 14.9936 17.4453 15.0581 17.439 15.1413C17.405 15.5928 17.6619 16.1917 18.1508 16.4124L18.222 16.4444C18.3961 16.5224 18.8586 16.7298 18.8661 16.8282C18.8661 16.8282 18.8622 16.8398 18.8364 16.8602C18.7205 16.9507 18.3127 17.1285 17.9184 17.3005C17.2188 17.6056 16.4259 17.9513 16.0698 18.2712C15.5685 18.7218 15.0014 19.0245 14.6589 19.0245C14.6177 19.0245 14.5801 19.0201 14.5467 19.011C14.1748 18.912 13.8687 18.4537 14.0332 17.8001ZM1.35595 16.097C1.31802 15.9454 1.28807 15.8257 1.32024 15.7097C1.34358 15.6238 1.84012 15.5318 2.05219 15.4925C2.35032 15.4372 2.65867 15.3801 2.8603 15.2756C3.13294 15.1345 3.28059 14.8744 3.41081 14.6449C3.50509 14.4789 3.60245 14.3073 3.71831 14.251C3.72484 14.2477 3.73482 14.2439 3.75386 14.2439C3.97092 14.2439 4.42638 14.6336 4.68881 14.9824C4.75538 15.0703 4.87869 15.2465 5.02135 15.4505C5.44801 16.0602 6.03223 16.8953 6.33735 17.1752C6.6123 17.4268 7.0574 17.9105 6.94791 18.3254C6.86775 18.6473 6.44101 18.9091 6.34035 18.967C6.3038 18.9741 6.25858 18.9777 6.20537 18.9777C5.62138 18.9777 4.46538 18.5627 3.84431 18.3398L3.7524 18.3068C3.40559 18.1826 2.83941 18.1044 2.29189 18.0287C1.85624 17.9684 1.25966 17.886 1.16077 17.8115C1.08061 17.7347 1.17359 17.4851 1.25559 17.2648C1.31464 17.1065 1.3756 16.9429 1.409 16.7715C1.45637 16.4982 1.40063 16.2757 1.35595 16.097Z" fill="#818CF8"/>
</g>
<defs>
<clipPath id="clip0_15_6362">
<rect width="20" height="20" fill="white"/>
</clipPath>
</defs>
</svg>
