<svg width="20" height="20" viewBox="0 0 20 20" fill="none" xmlns="http://www.w3.org/2000/svg">
<g clip-path="url(#clip0_15_6367)">
<path d="M15.5078 0H10.9766V20H15.5078C17.9848 20 20 17.9848 20 15.5078V4.49219C20 2.0152 17.9848 0 15.5078 0ZM15.4883 12.9688C14.1852 12.9688 13.125 11.9086 13.125 10.6055C13.125 9.30238 14.1852 8.24219 15.4883 8.24219C16.7914 8.24219 17.8516 9.30238 17.8516 10.6055C17.8516 11.9086 16.7914 12.9688 15.4883 12.9688Z" fill="#818CF8"/>
<path d="M9.80467 20H4.49219C2.0152 20 0 17.9848 0 15.5078V4.49219C0 2.0152 2.0152 0 4.49219 0H9.80467V20ZM4.49219 1.17188C2.66137 1.17188 1.17188 2.66137 1.17188 4.49219V15.5078C1.17188 17.3386 2.66137 18.8281 4.49219 18.8281H8.63281V1.17188H4.49219Z" fill="#818CF8"/>
<path d="M4.90233 8.24219C3.59926 8.24219 2.53906 7.182 2.53906 5.87891C2.53906 4.57582 3.59926 3.51562 4.90233 3.51562C6.20543 3.51562 7.26562 4.57582 7.26562 5.87891C7.26562 7.182 6.20543 8.24219 4.90233 8.24219Z" fill="#818CF8"/>
</g>
<defs>
<clipPath id="clip0_15_6367">
<rect width="20" height="20" fill="white"/>
</clipPath>
</defs>
</svg>
