<svg width="20" height="20" viewBox="0 0 20 20" fill="none" xmlns="http://www.w3.org/2000/svg">
<g clip-path="url(#clip0_15_6366)">
<path fill-rule="evenodd" clip-rule="evenodd" d="M19.8221 15.3072C19.4314 15.9459 18.4743 16.4014 18.4743 16.4014L11.354 19.7151V17.2713L16.5941 14.8523C17.1887 14.5762 17.28 14.186 16.7967 13.9812C16.3142 13.7757 15.4407 13.8346 14.8456 14.1118L11.354 15.7051V13.1689L11.5552 13.0806C11.5552 13.0806 12.5642 12.618 13.9829 12.4144C15.4016 12.2119 17.1387 12.442 18.5025 13.1118C20.0393 13.741 20.2123 14.6686 19.8221 15.3072ZM12.0318 11.146V4.8964C12.0318 4.16245 11.9273 3.48676 11.3958 3.29547C10.9888 3.12655 10.7362 3.61624 10.7362 4.34962V20L7.47855 18.6604V0C8.86366 0.333138 10.8816 1.12066 11.9663 1.59447C14.7252 2.82166 15.6605 4.34903 15.6605 7.79044C15.6605 11.1448 14.0624 12.4161 12.0318 11.146ZM1.50121 17.0159C-0.0764858 16.4403 -0.339057 15.2407 0.380062 14.5497C1.04467 13.9117 2.1749 13.4314 2.1749 13.4314L6.84576 11.2796V13.7328L3.48459 15.2913C2.89084 15.5674 2.79953 15.9582 3.28197 16.163C3.76486 16.3679 4.6389 16.3096 5.23355 16.033L6.84576 15.2749V17.4697C6.74355 17.4932 6.62952 17.5168 6.52414 17.5397C4.91145 17.8811 3.19384 17.7387 1.50121 17.0159Z" fill="#818CF8"/>
</g>
<defs>
<clipPath id="clip0_15_6366">
<rect width="20" height="20" fill="white"/>
</clipPath>
</defs>
</svg>
