<svg width="20" height="20" viewBox="0 0 20 20" fill="none" xmlns="http://www.w3.org/2000/svg">
<g clip-path="url(#clip0_15_6363)">
<path fill-rule="evenodd" clip-rule="evenodd" d="M0.567869 12.8722C1.79743 16.9078 5.54986 19.8461 9.98752 19.8461C15.4254 19.8461 19.8337 15.4378 19.8337 9.99999C19.8337 4.56215 15.4254 0.153839 9.98752 0.153839C4.76967 0.153839 0.499828 4.21322 0.162598 9.34584C0.164015 9.34822 0.16543 9.35059 0.166843 9.35296C0.166893 9.35211 0.166919 9.35168 0.166919 9.35168L5.45769 11.5323C5.60233 11.4344 5.75681 11.3519 5.91861 11.2861C6.2903 11.1332 6.68169 11.0646 7.07184 11.0824L9.48107 7.58245L9.48015 7.53383H9.47707C9.47707 5.46799 11.1549 3.78799 13.2171 3.78799C15.2832 3.79229 16.9571 5.46799 16.9571 7.53383C16.9571 9.59968 15.2802 11.2815 13.2171 11.2815L13.1325 11.28L9.68846 13.7431C9.69841 14.1287 9.62668 14.512 9.478 14.868C9.19929 15.5362 8.66676 16.0665 7.99736 16.3424C7.32797 16.6183 6.57644 16.6172 5.90784 16.3394C5.058 15.9855 4.47953 15.2495 4.29492 14.4101L0.567869 12.8722ZM6.14692 15.7628C7.21984 16.2098 8.4543 15.7031 8.90169 14.6261H8.89923C9.11523 14.1074 9.11646 13.5329 8.9023 13.012C8.68815 12.4911 8.28815 12.0837 7.76507 11.8674C7.24877 11.6529 6.69677 11.6591 6.21123 11.8437L7.47276 12.3652C7.85272 12.524 8.15412 12.8271 8.31075 13.2079C8.46739 13.5887 8.46645 14.0162 8.30815 14.3963C8.22997 14.5844 8.11549 14.7553 7.97125 14.8992C7.82701 15.0431 7.65583 15.1571 7.46749 15.2348C7.27916 15.3125 7.07736 15.3523 6.87363 15.352C6.6699 15.3517 6.46824 15.3112 6.28015 15.2329L5.06261 14.7283C5.28488 15.1945 5.6708 15.5627 6.14692 15.7628ZM11.4589 9.29735C11.9259 9.76524 12.5594 10.029 13.2205 10.0308C13.8817 10.0291 14.5152 9.76547 14.9824 9.29756C15.4496 8.82965 15.7122 8.19564 15.7128 7.53445C15.712 6.87336 15.4493 6.23951 14.9822 5.77173C14.515 5.30395 13.8815 5.04038 13.2205 5.03875C12.5595 5.04054 11.9261 5.30419 11.4591 5.77194C10.9921 6.23971 10.7295 6.87346 10.7288 7.53445C10.7293 8.19554 10.9919 8.82945 11.4589 9.29735ZM11.9006 6.20553C11.5498 6.55719 11.353 7.03374 11.3534 7.53045C11.3531 8.0271 11.5498 8.50354 11.9006 8.85507C12.2514 9.20661 12.7275 9.40448 13.2241 9.40522C13.721 9.40473 14.1973 9.20696 14.5483 8.8554C14.8993 8.50384 15.0964 8.02726 15.0961 7.53045C15.0961 6.49506 14.2565 5.65506 13.2241 5.65506C12.7274 5.65588 12.2514 5.85387 11.9006 6.20553Z" fill="#818CF8"/>
</g>
<defs>
<clipPath id="clip0_15_6363">
<rect width="20" height="20" fill="white"/>
</clipPath>
</defs>
</svg>
