<svg width="20" height="20" viewBox="0 0 20 20" fill="none" xmlns="http://www.w3.org/2000/svg">
<g clip-path="url(#clip0_15_6364)">
<mask id="mask0_15_6364" style="mask-type:luminance" maskUnits="userSpaceOnUse" x="0" y="0" width="20" height="20">
<path d="M20 0H0V20H20V0Z" fill="white"/>
</mask>
<g mask="url(#mask0_15_6364)">
<path d="M9.00276 19.9589C7.46219 19.8114 5.90248 19.2584 4.56258 18.3847C3.4398 17.6526 3.18626 17.3516 3.18626 16.751C3.18626 15.5445 4.51354 13.4314 6.78443 11.0224C8.07414 9.65429 9.87067 8.05062 10.065 8.09405C10.4426 8.17848 13.4621 11.1222 14.5925 12.508C16.38 14.6993 17.2018 16.4935 16.7843 17.2934C16.467 17.9015 14.4978 19.09 13.051 19.5465C11.8587 19.9229 10.2928 20.0823 9.00276 19.9589ZM1.66982 15.4966C0.736814 14.066 0.26543 12.6576 0.0378427 10.6207C-0.0373071 9.94805 -0.0103773 9.56329 0.208489 8.18272C0.481271 6.46205 1.46171 4.47144 2.6398 3.24638C3.14155 2.72461 3.18637 2.7119 3.79798 2.91782C4.5407 3.16789 5.33386 3.71538 6.56395 4.82705L7.28167 5.47567L6.88976 5.9569C5.07048 8.19071 3.14992 11.357 2.42613 13.316C2.03265 14.3809 1.87395 15.4499 2.04325 15.895C2.15756 16.1955 2.05257 16.0834 1.66982 15.4966ZM18.0469 15.7399C18.1391 15.2902 18.0225 14.4643 17.7493 13.6313C17.1576 11.8273 15.1798 8.47129 13.3637 6.18952L12.792 5.47124L13.4105 4.90357C14.2181 4.16244 14.7788 3.71865 15.3838 3.34178C15.8612 3.04438 16.5435 2.78111 16.8368 2.78111C17.0176 2.78111 17.6541 3.44131 18.1679 4.16181C18.9638 5.27771 19.5492 6.63043 19.8459 8.03862C20.0375 8.94848 20.0535 10.8961 19.8767 11.8038C19.7317 12.5486 19.4254 13.5148 19.1266 14.1701C18.9027 14.6611 18.3459 15.6147 18.1019 15.925C17.9765 16.0845 17.9763 16.0841 18.0469 15.7399ZM9.16771 2.44045C8.32976 2.01516 7.03705 1.55863 6.32295 1.4358C6.07262 1.39274 5.64557 1.36873 5.37395 1.38244C4.78481 1.41218 4.8111 1.38138 5.75629 0.935081C6.54205 0.564033 7.19752 0.345843 8.08733 0.159114C9.08829 -0.0509438 10.9697 -0.053409 11.9547 0.154046C13.0186 0.378116 14.2714 0.844062 14.9773 1.27825L15.1871 1.4073L14.7058 1.383C13.7492 1.33472 12.3551 1.72097 10.8584 2.44896C10.4069 2.66855 10.0141 2.84392 9.98557 2.83869C9.957 2.83345 9.58895 2.65424 9.16771 2.44045Z" fill="#818CF8"/>
</g>
</g>
<defs>
<clipPath id="clip0_15_6364">
<rect width="20" height="20" fill="white"/>
</clipPath>
</defs>
</svg>
